# xmcd
#
# Track frame offsets:
#	150
#	8242
#	16352
#	26900
#	43522
#	54660
#	72102
#	86970
#	101370
#	113677
#	123722
#	139450
#	151725
#	164417
#	177207
#	191677
#	205417
#	216552
#
# Disc length: 3052 seconds
#
# Revision: 1
# Processed by: cddbd v1.5.2PL0 Copyright (c) Steve Scherf et al.
# Submitted via: audiograbber 1.83.01
#
DISCID=070bea12
DTITLE=Various Artist - Country Tracks  Volume 3
DYEAR=1997
DGENRE=Country
TTITLE0=Roger Miller - In the Summertime
TTITLE1=Don Gibson - Blue Blue day
TTITLE2=Lester Flatt and Earl Scruggs - Foggy Mountain Breakdown
TTITLE3=Kris Kristofferson and Rita Coolidge - Rain
TTITLE4=Conway Twitty - It's only make believe
TTITLE5=Willie Nelson - Whiskey River
TTITLE6=David Allen Coe - Willie, Waylon and me
TTITLE7=Lacy J Dalton - 16th Avenue
TTITLE8=Jeanne Pruett - Satin Sheets
TTITLE9=Brenda Lee - I'm Sorry
TTITLE10=Cal Smith - Country Bumpkin
TTITLE11=Merle Haggard - Okie from Muskogee
TTITLE12=Johnny Cash - Folsom Prison Blues
TTITLE13=Mickey Gilley - Roomful of Roses
TTITLE14=Loretta Lynn - Coalminers Daughter
TTITLE15=Jimmy Dean - Big Bad John
TTITLE16=Marty Robbins - Singing the Blues
TTITLE17=Bob Wills - Lone Star Rag
EXTD=
EXTT0=
EXTT1=
EXTT2=
EXTT3=
EXTT4=
EXTT5=
EXTT6=
EXTT7=
EXTT8=
EXTT9=
EXTT10=
EXTT11=
EXTT12=
EXTT13=
EXTT14=
EXTT15=
EXTT16=
EXTT17=
PLAYORDER=
